<?xml version="1.0" encoding="UTF-8"?>
<svg version="1.1" xmlns="http://www.w3.org/2000/svg" width="677" height="369">
<path d="M0 0 C1 3 1 3 0.29296875 4.8671875 C-0.07183594 5.52976563 -0.43664062 6.19234375 -0.8125 6.875 C-2.40707479 9.86551743 -3.80777286 12.82072763 -5 16 C-3.02 16.99 -3.02 16.99 -1 18 C2.87051275 14.92118304 6.02911382 11.99926986 9 8 C16.95519059 11.43165084 20.56004737 19.65218157 23.875 27.1875 C24.17317627 27.86441895 24.47135254 28.54133789 24.77856445 29.23876953 C30.0858589 41.84340071 29.37648645 57.20719344 25 70 C24.50693359 71.45792969 24.50693359 71.45792969 24.00390625 72.9453125 C17.67798657 89.71228301 5.23410396 103.72613163 -10 113 C-11.09828125 113.66902344 -12.1965625 114.33804688 -13.328125 115.02734375 C-32.26258596 126.05065571 -53.56698689 129.48476673 -75 125 C-76.14210938 124.77828125 -77.28421875 124.5565625 -78.4609375 124.328125 C-90.76937682 121.54626025 -106.79604486 115.1379303 -115 105 C-115 103.68 -115 102.36 -115 101 C-113.96359375 100.86722656 -112.9271875 100.73445313 -111.859375 100.59765625 C-110.48956735 100.41939361 -109.11977656 100.24100138 -107.75 100.0625 C-107.06808594 99.97548828 -106.38617188 99.88847656 -105.68359375 99.79882812 C-102.39394032 99.36765996 -99.20363495 98.86166733 -96 98 C-89.6885678 97.19428525 -85.07434623 99.41645993 -79.25390625 101.75390625 C-65.8727909 106.87824694 -49.0935769 106.9684276 -35.8125 101.375 C-34.884375 100.92125 -33.95625 100.4675 -33 100 C-34.27875 99.773125 -35.5575 99.54625 -36.875 99.3125 C-45.35963648 97.40778569 -53.68641538 93.03334718 -60 87 C-60.33 86.01 -60.66 85.02 -61 84 C-61.99 83.5359375 -61.99 83.5359375 -63 83.0625 C-65 82 -65 82 -65.76953125 80.1796875 C-66.07017226 77.33633693 -65.31336538 76.37535075 -63.6875 74.0625 C-62.05977962 71.66563702 -60.93198598 69.81196123 -59.9375 67.0625 C-59.628125 66.381875 -59.31875 65.70125 -59 65 C-56.94140625 64.37109375 -56.94140625 64.37109375 -55 64 C-54.60167969 64.55429688 -54.20335937 65.10859375 -53.79296875 65.6796875 C-53.26316406 66.40414062 -52.73335938 67.12859375 -52.1875 67.875 C-51.66542969 68.59429687 -51.14335937 69.31359375 -50.60546875 70.0546875 C-48.96727223 72.23028655 -48.96727223 72.23028655 -46 74 C-46 74.66 -46 75.32 -46 76 C-45.43023437 76.12246094 -44.86046875 76.24492187 -44.2734375 76.37109375 C-41.88417247 77.03204164 -39.86119609 77.99782643 -37.625 79.0625 C-29.82246662 82.15147949 -22.24657966 82.43333192 -14.2734375 79.7421875 C-5.91990721 76.12250914 0.98673754 71.03713499 5.109375 62.77734375 C7.14648204 57.32904332 7.59364684 51.77021488 8 46 C4.7 46 1.4 46 -2 46 C-3.17176518 43.87767021 -4.33754785 41.75242209 -5.5 39.625 C-6.00080078 38.72007812 -6.00080078 38.72007812 -6.51171875 37.796875 C-9 33.2265625 -9 33.2265625 -9 31 C-9.804375 30.690625 -10.60875 30.38125 -11.4375 30.0625 C-14 29 -14 29 -15 28 C-15.68322745 23.21740783 -13.79767441 20.75937499 -11 17 C-20.72239957 12.72003062 -31.16204187 13.32587313 -41 17 C-48.47896557 20.82555784 -53.38871733 25.59660173 -56.81640625 33.27734375 C-58.55599186 38.74871367 -59.39397216 44.31812085 -60.32202148 49.97460938 C-61.42494579 56.18267294 -63.15886757 61.55729437 -66 67.1875 C-66.33241699 67.85233398 -66.66483398 68.51716797 -67.00732422 69.20214844 C-68.87519323 72.66592915 -70.29994604 74.59045563 -74 76 C-74.28875 76.598125 -74.5775 77.19625 -74.875 77.8125 C-76.53535774 81.04097339 -79.15411578 82.86712349 -82 85 C-82.94166016 85.74830078 -82.94166016 85.74830078 -83.90234375 86.51171875 C-94.45517683 94.31334768 -107.14117207 96.32833473 -120 95 C-132.03313364 92.69694271 -142.80384386 87.07042259 -150 77 C-150.80244141 75.948125 -150.80244141 75.948125 -151.62109375 74.875 C-155.11962157 70.04250115 -157.90176002 65.11543903 -158 59 C-157.34 58.01 -156.68 57.02 -156 56 C-152.81305301 56.29962749 -151.39619082 56.54531121 -149.25390625 59.00390625 C-148.69574219 59.84824219 -148.13757813 60.69257813 -147.5625 61.5625 C-144.14917408 66.08759493 -140.7389492 68.81786577 -135.875 71.5625 C-135.28920166 71.89644775 -134.70340332 72.23039551 -134.09985352 72.57446289 C-125.59239225 77.13806794 -114.59320846 77.26800541 -105.3203125 74.875 C-96.70997868 71.62800543 -89.48421633 66.07403978 -85 58 C-82.46372229 51.78691718 -81.00448361 45.49428945 -80 38.875 C-78.07618402 26.55611113 -72.63607288 15.26747123 -63 7 C-62.34 7 -61.68 7 -61 7 C-60.80019531 6.41347656 -60.60039062 5.82695312 -60.39453125 5.22265625 C-56.45688381 -1.05331404 -45.2296583 -4.19576949 -38.3125 -5.9375 C-26.16499961 -8.27918682 -10.38012114 -7.71705635 0 0 Z " fill="#3DB5E8" transform="translate(403,150)"/>
<path d="M0 0 C2.49210439 2.49210439 2.26015661 4.00360788 2.2734375 7.41015625 C2.26570313 8.09980469 2.25796875 8.78945312 2.25 9.5 C2.26160156 10.53447266 2.26160156 10.53447266 2.2734375 11.58984375 C2.25333293 16.74666707 2.25333293 16.74666707 0 19 C-1.90351305 19.36785682 -3.82496735 19.64493512 -5.75 19.875 C-23.54379705 22.38033506 -39.17231086 28.46100281 -51.60546875 41.7109375 C-53 43 -53 43 -55 43 C-55.2475 43.9075 -55.495 44.815 -55.75 45.75 C-57 49 -57 49 -58.82421875 50.74609375 C-68.35232697 60.61632435 -71.30275177 75.69197355 -72.4375 88.8125 C-73 92 -73 92 -74.5859375 93.21875 C-77.92515609 94.29940327 -80.70254876 93.98724192 -84.1875 93.6875 C-85.43917969 93.58824219 -86.69085938 93.48898438 -87.98046875 93.38671875 C-91 93 -91 93 -92 92 C-92.45093192 67.26316332 -81.80679864 44.31168944 -65 26.5 C-55.84731973 17.62737392 -45.19411291 9.9530366 -33 6 C-31.80375 5.484375 -30.6075 4.96875 -29.375 4.4375 C-20.38427017 1.10488731 -9.54255057 -0.82263367 0 0 Z " fill="#3EB6E8" transform="translate(338,88)"/>
<path d="M0 0 C1.59908203 -0.00386719 1.59908203 -0.00386719 3.23046875 -0.0078125 C5.8125 0.125 5.8125 0.125 6.8125 1.125 C6.88569621 3.82154854 6.90492537 6.49191458 6.875 9.1875 C6.87048828 9.94611328 6.86597656 10.70472656 6.86132812 11.48632812 C6.8495068 13.36591871 6.83157078 15.24546899 6.8125 17.125 C1.05190028 19.72205198 -4.65652323 21.40051864 -10.78515625 22.96484375 C-14.4394623 24.21091596 -17.07735559 25.85791439 -20.1875 28.125 C-20.80496094 28.5478125 -21.42242187 28.970625 -22.05859375 29.40625 C-29.47895421 35.17969754 -34.08387898 43.36064042 -35.375 52.625 C-35.45105469 53.5840625 -35.52710938 54.543125 -35.60546875 55.53125 C-36.35845389 58.8868348 -37.42400746 60.10534361 -40.1875 62.125 C-42.84375 62.55078125 -42.84375 62.55078125 -45.6875 62.4375 C-46.6259375 62.41300781 -47.564375 62.38851562 -48.53125 62.36328125 C-50.8647218 62.1539551 -52.94309394 61.77608949 -55.1875 61.125 C-58.15220006 50.15560977 -52.69624722 38.81269052 -47.69140625 29.2734375 C-42.21991381 19.95746717 -34.16167379 11.58909651 -24.1875 7.125 C-22.50527344 6.36896484 -22.50527344 6.36896484 -20.7890625 5.59765625 C-13.62751336 2.44200283 -7.87828497 -0.01919192 0 0 Z " fill="#3DB5E8" transform="translate(333.1875,119.875)"/>
<path d="M0 0 C0.84857919 2.54573756 1.03698622 3.85205512 0.375 6.5 C-0.29950314 9.07388137 -0.29950314 9.07388137 1.4375 11.125 C2.2109375 12.053125 2.2109375 12.053125 3 13 C3 13.99 3 14.98 3 16 C3.99 16 4.98 16 6 16 C5.01 18.475 5.01 18.475 4 21 C3.34 21 2.68 21 2 21 C2.18304688 21.72960937 2.36609375 22.45921875 2.5546875 23.2109375 C3.01485487 26.09303838 2.81054725 27.81707358 2.125 30.625 C0.91036052 36.0744636 0.42803717 41.43551678 0 47 C-4.62 47 -9.24 47 -14 47 C-14.43274854 27.62248213 -14.43274854 27.62248213 -12 21 C-11.34 20.67 -10.68 20.34 -10 20 C-9.16822376 18.18232869 -9.16822376 18.18232869 -8.5 16.0625 C-7.57597536 13.29544796 -7.10862631 12.10862631 -5 10 C-4.42979389 7.97260048 -4.05183592 5.94367711 -3.66015625 3.875 C-3 2 -3 2 0 0 Z " fill="#39B5E8" transform="translate(263,133)"/>
<path d="M0 0 C3.36654568 0.1987 4.68329268 0.6649859 7.02734375 3.14453125 C7.65769531 4.02496094 8.28804687 4.90539062 8.9375 5.8125 C11.25380198 8.89797246 13.17669399 11.44194509 16.5 13.4375 C17.7375 14.2109375 17.7375 14.2109375 19 15 C19 15.99 19 16.98 19 18 C17.68 18.33 16.36 18.66 15 19 C15 18.34 15 17.68 15 17 C14.01 17.33 13.02 17.66 12 18 C13.35997554 24.04433574 16.85651794 27.63494136 21 32 C15.87764303 32 12.62555775 28.37822353 9 25 C4.06723732 19.15376275 -2.31277116 11.00433863 -1.8125 3 C-1 1 -1 1 0 0 Z " fill="#43B4DF" transform="translate(247,206)"/>
<path d="M0 0 C-1.33333333 3.33333333 -2.66666667 6.66666667 -4 10 C-2.30287793 11.30859649 -2.30287793 11.30859649 0 12 C2.74832154 10.71815438 2.74832154 10.71815438 5 9 C4.67 10.32 4.34 11.64 4 13 C3.01 13 2.02 13 1 13 C1 13.66 1 14.32 1 15 C0.01 15 -0.98 15 -2 15 C-2 14.34 -2 13.68 -2 13 C-4.97 12.505 -4.97 12.505 -8 12 C-8.66 13.65 -9.32 15.3 -10 17 C-10.66 17 -11.32 17 -12 17 C-12 18.65 -12 20.3 -12 22 C-11.071875 22.2165625 -11.071875 22.2165625 -10.125 22.4375 C-8 23 -8 23 -6 24 C-6 24.66 -6 25.32 -6 26 C-5.34 26 -4.68 26 -4 26 C-3.67 27.98 -3.34 29.96 -3 32 C-2.34 32 -1.68 32 -1 32 C-0.67 33.65 -0.34 35.3 0 37 C3.3 37.66 6.6 38.32 10 39 C10 42.63 10 46.26 10 50 C9.67 50 9.34 50 9 50 C9 46.7 9 43.4 9 40 C5.7 40 2.4 40 -1 40 C-2.17176518 37.87767021 -3.33754785 35.75242209 -4.5 33.625 C-4.83386719 33.02171875 -5.16773438 32.4184375 -5.51171875 31.796875 C-8 27.2265625 -8 27.2265625 -8 25 C-8.804375 24.690625 -9.60875 24.38125 -10.4375 24.0625 C-13 23 -13 23 -14 22 C-14.68322745 17.21740783 -12.79767441 14.75937499 -10 11 C-13.96697886 9.19682779 -17.6822542 8.50797009 -22 8 C-22 7.67 -22 7.34 -22 7 C-18.37 7 -14.74 7 -11 7 C-11 6.34 -11 5.68 -11 5 C-7.8851168 2.23121493 -4.26101366 0 0 0 Z " fill="#3FB5E4" transform="translate(402,156)"/>
<path d="M0 0 C2 2 2 2 2 6 C1.34 6 0.68 6 0 6 C0 6.66 0 7.32 0 8 C-0.99 8.495 -0.99 8.495 -2 9 C-4.26884702 15.80654105 -4.242652 22.90916944 -4 30 C-0.39574248 30.90032694 -0.39574248 30.90032694 3.1875 30.3125 C5.31202953 28.77404758 6.03558469 27.41103827 7 25 C7.66 25 8.32 25 9 25 C8.938125 24.21625 8.87625 23.4325 8.8125 22.625 C8.9053125 21.325625 8.9053125 21.325625 9 20 C9.99 19.34 10.98 18.68 12 18 C11.93970033 19.91752953 11.85083293 21.83417426 11.75 23.75 C11.68039062 25.35101563 11.68039062 25.35101563 11.609375 26.984375 C10.8733195 30.62690608 10.01716817 31.86027359 7 34 C4.34375 34.42578125 4.34375 34.42578125 1.5 34.3125 C0.5615625 34.28800781 -0.376875 34.26351562 -1.34375 34.23828125 C-3.6772218 34.0289551 -5.75559394 33.65108949 -8 33 C-11.07186681 21.63409281 -5.06393067 9.91686423 0 0 Z " fill="#4DB9DE" transform="translate(286,148)"/>
<path d="M0 0 C0.66 0 1.32 0 2 0 C0.90735605 3.77458819 -0.54365918 7.02060045 -2.4375 10.4375 C-6.44234811 18.24636312 -7.72594154 27.13148682 -8.4375 35.8125 C-9 39 -9 39 -10.5859375 40.21875 C-13.92515609 41.29940327 -16.70254876 40.98724192 -20.1875 40.6875 C-21.43917969 40.58824219 -22.69085938 40.48898438 -23.98046875 40.38671875 C-27 40 -27 40 -28 39 C-27.96113007 36.46149484 -27.85652606 33.96809387 -27.6875 31.4375 C-27.64117432 30.71111328 -27.59484863 29.98472656 -27.54711914 29.23632812 C-27.1919694 24.29415076 -26.48251674 19.74405356 -25 15 C-24.67 15 -24.34 15 -24 15 C-24.33 22.92 -24.66 30.84 -25 39 C-20.38 39 -15.76 39 -11 39 C-11.04125 37.453125 -11.0825 35.90625 -11.125 34.3125 C-11.13974588 28.63533766 -10.39417262 23.23957761 -9.4375 17.65234375 C-8.94575024 15.11914153 -8.94575024 15.11914153 -9 13 C-8.56816406 12.57074219 -8.13632812 12.14148438 -7.69140625 11.69921875 C-4.93437218 8.92945011 -3.30698982 5.46968419 -1.40234375 2.08203125 C-0.93957031 1.39496094 -0.47679687 0.70789063 0 0 Z " fill="#6EBEDA" transform="translate(274,141)"/>
<path d="M0 0 C0 0.33 0 0.66 0 1 C-3.63 1 -7.26 1 -11 1 C-11 0.01 -11 -0.98 -11 -2 C-16.03984078 -2.31499005 -19.48163924 -1.6903583 -24.10546875 0.34375 C-26 1 -26 1 -30 1 C-30 1.66 -30 2.32 -30 3 C-29.34 3 -28.68 3 -28 3 C-28.020625 3.78375 -28.04125 4.5675 -28.0625 5.375 C-28.18684063 7.98114961 -28.18684063 7.98114961 -27 10 C-31.73084414 8.56641087 -35.84024187 5.80627924 -39 2 C-39 0.68 -39 -0.64 -39 -2 C-37.96359375 -2.13277344 -36.9271875 -2.26554688 -35.859375 -2.40234375 C-34.48956735 -2.58060639 -33.11977656 -2.75899862 -31.75 -2.9375 C-31.06808594 -3.02451172 -30.38617188 -3.11152344 -29.68359375 -3.20117188 C-17.47607836 -4.80118603 -11.83437591 -4.98289512 0 0 Z " fill="#51B4DB" transform="translate(327,253)"/>
<path d="M0 0 C2.14255793 -0.38932856 2.14255793 -0.38932856 4 -1 C1.55229545 1.87482078 -0.83824337 2.89440249 -4.375 4.125 C-5.31085938 4.45757812 -6.24671875 4.79015625 -7.2109375 5.1328125 C-18.43792842 8.62355758 -30.45334613 8.27332693 -41 3 C-41 2.34 -41 1.68 -41 1 C-37.98832339 0.81747415 -35.88678804 1.03773732 -33 2 C-23.65045174 4.79272221 -14.63224636 3.02784495 -5.6796875 -0.22265625 C-3 -1 -3 -1 0 0 Z " fill="#5AB4D9" transform="translate(313,238)"/>
<path d="M0 0 C2.49210439 2.49210439 2.26015661 4.00360788 2.2734375 7.41015625 C2.26570313 8.09980469 2.25796875 8.78945312 2.25 9.5 C2.25773437 10.18964844 2.26546875 10.87929687 2.2734375 11.58984375 C2.25333293 16.74666707 2.25333293 16.74666707 0 19 C-2.86328125 19.6328125 -2.86328125 19.6328125 -6.3125 20.125 C-7.44300781 20.29257813 -8.57351563 20.46015625 -9.73828125 20.6328125 C-12.53427619 20.94757121 -15.19156059 21.07376764 -18 21 C-18 20.34 -18 19.68 -18 19 C-12.72 17.68 -7.44 16.36 -2 15 C-2 11.37 -2 7.74 -2 4 C-4.5390625 4.09765625 -7.078125 4.1953125 -9.6171875 4.29296875 C-10.79667969 4.14794922 -10.79667969 4.14794922 -12 4 C-12.66 3.01 -13.32 2.02 -14 1 C-9.45352102 -0.1732849 -4.66972706 -0.54128467 0 0 Z " fill="#59B3D6" transform="translate(338,88)"/>
<path d="M0 0 C6.60476069 8.19714135 5.75036088 19.95670818 5 30 C3.75519552 38.32462997 0.84821208 46.51948213 -3 54 C-3.99 54.495 -3.99 54.495 -5 55 C-4.61144978 51.73617815 -4.15133336 49.27634788 -2.5625 46.375 C-0.60536996 42.14759911 -0.07328567 38.10158988 0.5703125 33.51171875 C1 31 1 31 2 30 C2.09981214 27.3226862 2.13879875 24.67695825 2.125 22 C2.12886719 21.24976563 2.13273437 20.49953125 2.13671875 19.7265625 C2.47675541 16.06393883 2.47675541 16.06393883 1 13 C0.76518307 10.81707226 0.58636677 8.62796826 0.4375 6.4375 C0.35371094 5.23996094 0.26992188 4.04242188 0.18359375 2.80859375 C0.12300781 1.88175781 0.06242187 0.95492187 0 0 Z " fill="#90CEE2" transform="translate(426,178)"/>
<path d="M0 0 C0 0.66 0 1.32 0 2 C-0.85464844 2.30292969 -1.70929688 2.60585937 -2.58984375 2.91796875 C-4.24693359 3.54638672 -4.24693359 3.54638672 -5.9375 4.1875 C-7.03964844 4.59355469 -8.14179688 4.99960938 -9.27734375 5.41796875 C-12.2420857 6.73722075 -12.2420857 6.73722075 -12.87890625 9.67578125 C-12.91886719 10.44277344 -12.95882813 11.20976562 -13 12 C-13.66 12 -14.32 12 -15 12 C-15 11.01 -15 10.02 -15 9 C-17.40877257 9.11341534 -17.40877257 9.11341534 -20 10 C-21.68134288 12.35774595 -21.68134288 12.35774595 -23 15 C-24.6875 16.8125 -24.6875 16.8125 -26 18 C-25.34 18.33 -24.68 18.66 -24 19 C-26.97180943 20.89865603 -29.51460083 22.35455571 -33 23 C-31.64763423 20.06120516 -30.10057341 17.70767089 -28 15.25 C-27.484375 14.63640625 -26.96875 14.0228125 -26.4375 13.390625 C-25 12 -25 12 -23 12 C-22.71962891 11.12408203 -22.71962891 11.12408203 -22.43359375 10.23046875 C-20.36929431 7.01871131 -17.41945304 5.87047922 -14.0625 4.3125 C-13.42892578 4.00505859 -12.79535156 3.69761719 -12.14257812 3.38085938 C-7.86956462 1.32747644 -4.79176884 0 0 0 Z " fill="#51B5D7" transform="translate(365,145)"/>
<path d="M0 0 C0.33 0 0.66 0 1 0 C1.34906845 3.75248584 1.32941626 5.5115552 -0.8125 8.6875 C-3 11 -3 11 -4.54296875 12.37109375 C-6.27703909 14.30971931 -6.78627632 15.88546384 -7.5 18.375 C-8.60658406 21.9554657 -9.97429593 24.82933276 -12 28 C-12.69822617 29.65369357 -13.37498605 31.31727014 -14 33 C-14.66 33 -15.32 33 -16 33 C-16.33 33.66 -16.66 34.32 -17 35 C-15.20732729 22.451291 -8.0241737 9.67552538 0 0 Z " fill="#67BEDD" transform="translate(267,121)"/>
<path d="M0 0 C0.66 0.33 1.32 0.66 2 1 C2.25 4.25 2.25 4.25 2 8 C1.35546875 8.61359375 0.7109375 9.2271875 0.046875 9.859375 C-2.5531337 12.57846807 -2.6302609 14.30260903 -3 18 C-3.47912551 22.79125508 -4.27439304 24.87529739 -8 28 C-7.54162085 21.43794055 -6.79406103 15.3319801 -5 9 C-4.690625 7.72125 -4.38125 6.4425 -4.0625 5.125 C-3 2 -3 2 0 0 Z " fill="#4EB4D9" transform="translate(330,172)"/>
<path d="M0 0 C2 2 2 2 2 5 C1.01 5.33 0.02 5.66 -1 6 C-1 6.99 -1 7.98 -1 9 C-3.81534937 11.65894107 -6.12793601 13.42636089 -10 14 C-10 15.32 -10 16.64 -10 18 C-12.64 18 -15.28 18 -18 18 C-18.33 18.99 -18.66 19.98 -19 21 C-24.94 20.67 -30.88 20.34 -37 20 C-37 19.67 -37 19.34 -37 19 C-35.72769531 19.01353516 -35.72769531 19.01353516 -34.4296875 19.02734375 C-23.63856001 18.75460097 -14.54976147 16.07005034 -6.37890625 8.60546875 C-3.9159519 5.8878774 -1.64487491 3.28974982 0 0 Z " fill="#60B9DF" transform="translate(408,213)"/>
<path d="M0 0 C1.24546405 2.49092811 0.7767578 3.41080733 0 6 C-0.66 6 -1.32 6 -2 6 C-2 7.65 -2 9.3 -2 11 C-1.071875 11.2165625 -1.071875 11.2165625 -0.125 11.4375 C2 12 2 12 4 13 C4 13.66 4 14.32 4 15 C4.66 15 5.32 15 6 15 C6.33 16.98 6.66 18.96 7 21 C7.66 21 8.32 21 9 21 C9.33 22.65 9.66 24.3 10 26 C13.3 26.66 16.6 27.32 20 28 C20 31.63 20 35.26 20 39 C19.67 39 19.34 39 19 39 C19 35.7 19 32.4 19 29 C15.7 29 12.4 29 9 29 C7.82823482 26.87767021 6.66245215 24.75242209 5.5 22.625 C5.16613281 22.02171875 4.83226562 21.4184375 4.48828125 20.796875 C2 16.2265625 2 16.2265625 2 14 C1.195625 13.690625 0.39125 13.38125 -0.4375 13.0625 C-3 12 -3 12 -4 11 C-4.68322745 6.21740783 -2.79767441 3.75937499 0 0 Z " fill="#7CC7DD" transform="translate(392,167)"/>
<path d="M0 0 C2 2 2 2 2 6 C1.34 6 0.68 6 0 6 C0 6.66 0 7.32 0 8 C-0.99 8.495 -0.99 8.495 -2 9 C-2.65323886 11.28239894 -2.65323886 11.28239894 -3.0625 13.9375 C-3.91390728 18.82781457 -3.91390728 18.82781457 -5 21 C-5.07065617 23.04055005 -5.08421976 25.08334257 -5.0625 27.125 C-5.04896484 28.76855469 -5.04896484 28.76855469 -5.03515625 30.4453125 C-5.02355469 31.28835937 -5.01195312 32.13140625 -5 33 C-5.99 33 -6.98 33 -8 33 C-11.07186681 21.63409281 -5.06393067 9.91686423 0 0 Z " fill="#65BED8" transform="translate(286,148)"/>
<path d="M0 0 C0.825 0.144375 1.65 0.28875 2.5 0.4375 C6.32686278 1.05253152 10.15216707 1.53560637 14 2 C13.67 2.66 13.34 3.32 13 4 C14.17369141 4.18175781 14.17369141 4.18175781 15.37109375 4.3671875 C16.38300781 4.53476563 17.39492188 4.70234375 18.4375 4.875 C19.95150391 5.11863281 19.95150391 5.11863281 21.49609375 5.3671875 C22.32238281 5.57601562 23.14867187 5.78484375 24 6 C24.33 6.66 24.66 7.32 25 8 C20.73688282 12.12989477 17.71241466 12.61271765 12 13 C12 12.34 12 11.68 12 11 C14.31 10.01 16.62 9.02 19 8 C17.72125 7.773125 16.4425 7.54625 15.125 7.3125 C9.61331172 6.11202099 4.92174841 3.69206281 0 1 C0 0.67 0 0.34 0 0 Z " fill="#62B8DB" transform="translate(351,242)"/>
<path d="M0 0 C2.97 0 5.94 0 9 0 C-5.6361521 7.31807605 -21.25443948 7.07766628 -37 4 C-37 3.34 -37 2.68 -37 2 C-34.36 2 -31.72 2 -29 2 C-29 2.66 -29 3.32 -29 4 C-21.74 3.67 -14.48 3.34 -7 3 C-7 2.67 -7 2.34 -7 2 C-3.535 1.505 -3.535 1.505 0 1 C0 0.67 0 0.34 0 0 Z " fill="#85CAE4" transform="translate(365,271)"/>
<path d="M0 0 C1.25490234 0.10828125 1.25490234 0.10828125 2.53515625 0.21875 C14.33544935 1.15963716 26.06181205 1.62793472 37.828125 0.0234375 C40 0 40 0 43 2 C32.87410311 3.77203196 23.2455423 4.23950618 13 4 C13 3.34 13 2.68 13 2 C11.96939453 2.03480469 11.96939453 2.03480469 10.91796875 2.0703125 C9.56638672 2.09738281 9.56638672 2.09738281 8.1875 2.125 C7.29417969 2.14820313 6.40085937 2.17140625 5.48046875 2.1953125 C3 2 3 2 0 0 Z " fill="#4AA9CB" transform="translate(323,254)"/>
<path d="M0 0 C0.66 0.33 1.32 0.66 2 1 C0.58307609 6.15245057 -1.64368446 10.82701421 -5 15 C-5.99 15.33 -6.98 15.66 -8 16 C-8.268125 16.5775 -8.53625 17.155 -8.8125 17.75 C-10.5763914 21.09211003 -12.98041507 22.7353113 -16 25 C-16.66 25 -17.32 25 -18 25 C-18 24.34 -18 23.68 -18 23 C-17.01 23 -16.02 23 -15 23 C-14.731875 22.360625 -14.46375 21.72125 -14.1875 21.0625 C-13 19 -13 19 -10 18 C-9.855625 17.360625 -9.71125 16.72125 -9.5625 16.0625 C-9 14 -9 14 -6.9375 12.75 C-6.298125 12.5025 -5.65875 12.255 -5 12 C-5.99 11.34 -6.98 10.68 -8 10 C-8 9.34 -8 8.68 -8 8 C-6.35 7.67 -4.7 7.34 -3 7 C-2.87625 6.21625 -2.7525 5.4325 -2.625 4.625 C-2 2 -2 2 0 0 Z " fill="#57B7D8" transform="translate(337,210)"/>
<path d="M0 0 C4.02152847 1.34050949 4.70273254 3.51929173 7 7 C8.31558703 8.02323436 9.64377755 9.03126968 11 10 C11 10.66 11 11.32 11 12 C11.598125 12.12375 12.19625 12.2475 12.8125 12.375 C15 13 15 13 18 15 C12.75789474 15.43684211 12.75789474 15.43684211 10 15 C7.5 12.625 7.5 12.625 6 10 C6 9.34 6 8.68 6 8 C5.01 7.67 4.02 7.34 3 7 C2.67 6.34 2.34 5.68 2 5 C1.34 5.66 0.68 6.32 0 7 C-0.99 7 -1.98 7 -3 7 C-2.625 4.0625 -2.625 4.0625 -2 1 C-1.34 0.67 -0.68 0.34 0 0 Z " fill="#68BBD7" transform="translate(346,214)"/>
<path d="M0 0 C0.33 0.66 0.66 1.32 1 2 C-0.98 2.99 -0.98 2.99 -3 4 C-2.67 5.32 -2.34 6.64 -2 8 C-5.33333333 8 -8.66666667 8 -12 8 C-12.66 9.32 -13.32 10.64 -14 12 C-15.32 12 -16.64 12 -18 12 C-18 12.66 -18 13.32 -18 14 C-19.32 14 -20.64 14 -22 14 C-22 13.34 -22 12.68 -22 12 C-15.2948285 6.67733809 -8.09763586 2.72309879 0 0 Z " fill="#6BC0DE" transform="translate(305,94)"/>
<path d="M0 0 C0.66 0 1.32 0 2 0 C3.125 2.25 3.125 2.25 4 5 C3.125 7.3125 3.125 7.3125 2 9 C2.66 9 3.32 9 4 9 C4 9.99 4 10.98 4 12 C5.32 12 6.64 12 8 12 C8 12.99 8 13.98 8 15 C9.32 15.33 10.64 15.66 12 16 C10.375 16.8125 10.375 16.8125 8 17 C4.75 14.6875 4.75 14.6875 2 12 C2 11.34 2 10.68 2 10 C1.360625 9.7525 0.72125 9.505 0.0625 9.25 C-2 8 -2 8 -2.9375 6.125 C-3 4 -3 4 -1.6875 1.75 C-1.130625 1.1725 -0.57375 0.595 0 0 Z " fill="#3FAED9" transform="translate(340,224)"/>
<path d="M0 0 C6.22529412 2.57220944 9.73926509 8.76321226 12.9375 14.4375 C14 17 14 17 14 19 C13.01 19 12.02 19 11 19 C8.96564469 15.27034861 8 13.33094958 8 9 C7.34 9 6.68 9 6 9 C6 8.34 6 7.68 6 7 C5.01 7 4.02 7 3 7 C3 6.01 3 5.02 3 4 C1.02 4.33 -0.96 4.66 -3 5 C-1.125 1.125 -1.125 1.125 0 0 Z " fill="#6FBBD2" transform="translate(412,158)"/>
<path d="M0 0 C0.66 0 1.32 0 2 0 C2 0.99 2 1.98 2 3 C0.80375 3.556875 -0.3925 4.11375 -1.625 4.6875 C-8.53589565 8.17957801 -12.52390233 12.18150072 -16 19 C-16.33 19 -16.66 19 -17 19 C-17 17.35 -17 15.7 -17 14 C-16.34 14 -15.68 14 -15 14 C-14.67 12.35 -14.34 10.7 -14 9 C-12.35 8.67 -10.7 8.34 -9 8 C-9 6.35 -9 4.7 -9 3 C-4.545 2.505 -4.545 2.505 0 2 C0 1.34 0 0.68 0 0 Z " fill="#63B5D8" transform="translate(363,163)"/>
<path d="M0 0 C0 0.33 0 0.66 0 1 C-3.63 1 -7.26 1 -11 1 C-11 0.01 -11 -0.98 -11 -2 C-14.47612829 -2.06952257 -17.69660543 -2.05461102 -21.125 -1.4375 C-24.08540216 -0.98700402 -26.12705194 -1.23951375 -29 -2 C-29 -2.33 -29 -2.66 -29 -3 C-17.7169548 -5.86553529 -10.75193149 -4.52712905 0 0 Z " fill="#72C6DD" transform="translate(327,253)"/>
<path d="M0 0 C1.97909398 -0.02686553 3.95828971 -0.04633375 5.9375 -0.0625 C7.03964844 -0.07410156 8.14179688 -0.08570312 9.27734375 -0.09765625 C12 0 12 0 13 1 C13.15317991 3.66002811 13.23159875 6.2762188 13.25 8.9375 C13.270625 9.67935547 13.29125 10.42121094 13.3125 11.18554688 C13.328125 13.33984375 13.328125 13.33984375 13 17 C10 19 10 19 7.8125 18.625 C6.9153125 18.315625 6.9153125 18.315625 6 18 C7.32 17.67 8.64 17.34 10 17 C10.33 11.72 10.66 6.44 11 1 C7.37 1 3.74 1 0 1 C0 0.67 0 0.34 0 0 Z " fill="#7ABDDE" transform="translate(327,120)"/>
<path d="M0 0 C0.66 0 1.32 0 2 0 C2.66 2.64 3.32 5.28 4 8 C5.32 8.33 6.64 8.66 8 9 C8.33 10.32 8.66 11.64 9 13 C8.01 13.33 7.02 13.66 6 14 C6.33 15.32 6.66 16.64 7 18 C6.34 18 5.68 18 5 18 C4.18167278 16.10667466 3.37057732 14.21022267 2.5625 12.3125 C2.11003906 11.25675781 1.65757812 10.20101562 1.19140625 9.11328125 C0.14135795 6.36938454 -0.62781589 3.90932652 -1 1 C-0.67 0.67 -0.34 0.34 0 0 Z " fill="#3BB2E6" transform="translate(249,208)"/>
<path d="M0 0 C0.66 0 1.32 0 2 0 C0.59622408 4.84940773 -1.51755485 9.09973953 -3.87890625 13.53515625 C-5.01590124 16.03496057 -5.57106207 18.29624521 -6 21 C-6.99 21 -7.98 21 -9 21 C-9.29296875 15.04296875 -9.29296875 15.04296875 -9 13 C-7.6796875 11.5625 -7.6796875 11.5625 -6 10 C-4.39070352 7.39973723 -2.90089186 4.7473878 -1.40234375 2.08203125 C-0.93957031 1.39496094 -0.47679687 0.70789063 0 0 Z " fill="#56B1D5" transform="translate(274,141)"/>
<path d="M0 0 C0.66 0.33 1.32 0.66 2 1 C1.5153125 1.27972656 1.030625 1.55945313 0.53125 1.84765625 C-5.46193074 5.43203935 -10.81778502 9.6087344 -15.60546875 14.7109375 C-17 16 -17 16 -19 16 C-17.60846256 11.57238086 -15.47928514 9.0443745 -12 6 C-11.34 6 -10.68 6 -10 6 C-10 5.34 -10 4.68 -10 4 C-8.33333333 3.33333333 -6.66666667 2.66666667 -5 2 C-3.6696875 1.4121875 -3.6696875 1.4121875 -2.3125 0.8125 C-1.549375 0.544375 -0.78625 0.27625 0 0 Z " fill="#5FB5D5" transform="translate(302,115)"/>
<path d="M0 0 C0.66 0.33 1.32 0.66 2 1 C1.47667748 6.79531237 0.29854313 11.58064848 -1.9375 16.9375 C-2.20240234 17.60845703 -2.46730469 18.27941406 -2.74023438 18.97070312 C-4.73574405 23.86787202 -4.73574405 23.86787202 -7 25 C-6.61144978 21.73617815 -6.15133336 19.27634788 -4.5625 16.375 C-2.60536996 12.14759911 -2.07328567 8.10158988 -1.4296875 3.51171875 C-1 1 -1 1 0 0 Z " fill="#66BBD3" transform="translate(428,208)"/>
<path d="M0 0 C0.33 0 0.66 0 1 0 C0.67 7.92 0.34 15.84 0 24 C-0.99 24 -1.98 24 -3 24 C-2.22095672 7.1070615 -2.22095672 7.1070615 0 0 Z " fill="#7FC1DA" transform="translate(249,156)"/>
<path d="M0 0 C4.63425362 -0.32332002 7.28683289 0.1355568 11 3 C11.33 3.99 11.66 4.98 12 6 C11.01 7.485 11.01 7.485 10 9 C7.5625 8.1875 7.5625 8.1875 5 7 C4.67 6.01 4.34 5.02 4 4 C2.70644173 2.62804426 1.37701298 1.28817344 0 0 Z " fill="#62B6D8" transform="translate(392,147)"/>
<path d="M0 0 C1.98 0 3.96 0 6 0 C0.4420266 5.71677264 -4.81327543 9.64738407 -12 13 C-11.67 11.68 -11.34 10.36 -11 9 C-9.02 8.67 -7.04 8.34 -5 8 C-4.67 7.01 -4.34 6.02 -4 5 C-3.34 5 -2.68 5 -2 5 C-2 4.34 -2 3.68 -2 3 C-1.34 2.67 -0.68 2.34 0 2 C0 1.34 0 0.68 0 0 Z " fill="#6FBDDB" transform="translate(400,252)"/>
<path d="M0 0 C2 2 2 2 2.1953125 5.4765625 C2.18201493 6.85950968 2.15816232 8.24238654 2.125 9.625 C2.11597656 10.33140625 2.10695313 11.0378125 2.09765625 11.765625 C2.07407603 13.51056098 2.03820461 15.25532295 2 17 C1.67 17 1.34 17 1 17 C1 12.38 1 7.76 1 3 C-1.97 2.67 -4.94 2.34 -8 2 C-8 2.66 -8 3.32 -8 4 C-10.86724686 3.42655063 -11.8614515 3.1385485 -14 1 C-9.45352102 -0.1732849 -4.66972706 -0.54128467 0 0 Z " fill="#79C2E2" transform="translate(338,88)"/>
<path d="M0 0 C0 3.54050501 -0.80182655 4.60667309 -2.75 7.5 C-3.26046875 8.2734375 -3.7709375 9.046875 -4.296875 9.84375 C-6.0126551 12.01602206 -7.71849539 13.4525447 -10 15 C-9.67 12.36 -9.34 9.72 -9 7 C-7.35 7 -5.7 7 -4 7 C-4 5.35 -4 3.7 -4 2 C-2.68 1.34 -1.36 0.68 0 0 Z " fill="#6BBDDB" transform="translate(420,233)"/>
<path d="M0 0 C4.37773412 1.65381067 6.28935034 5.25609897 8.8125 9.0625 C7.8225 9.5575 7.8225 9.5575 6.8125 10.0625 C4.01377563 7.53461993 2.35476981 5.85838866 1.8125 2.0625 C-0.54535318 2.95585797 -0.54535318 2.95585797 -1.3125 6.125 C-1.60125 7.094375 -1.89 8.06375 -2.1875 9.0625 C-4.1875 6.0625 -4.1875 6.0625 -3.875 3.4375 C-2.90395186 0.08297005 -2.90395186 0.08297005 0 0 Z " fill="#7CC2D7" transform="translate(249.1875,205.9375)"/>
<path d="M0 0 C0.75 1.625 0.75 1.625 1 4 C-0.26220093 6.04563599 -1.60287726 8.04402816 -3 10 C-3.71573527 11.64619113 -4.4025696 13.30728055 -5 15 C-5.66 15 -6.32 15 -7 15 C-7.33 15.66 -7.66 16.32 -8 17 C-7.00956295 12.16371695 -6.04301154 7.52381127 -4 3 C-3.01 3 -2.02 3 -1 3 C-0.67 2.01 -0.34 1.02 0 0 Z " fill="#5AB8D8" transform="translate(258,139)"/>
<path d="M0 0 C1.96082651 5.4467403 0.31177557 10.91409374 -2 16 C-4.31 16.33 -6.62 16.66 -9 17 C-8.27683594 15.91332031 -8.27683594 15.91332031 -7.5390625 14.8046875 C-6.90742188 13.83789062 -6.27578125 12.87109375 -5.625 11.875 C-4.99851562 10.92367187 -4.37203125 9.97234375 -3.7265625 8.9921875 C-2.02318931 6.04018781 -0.95806591 3.26129506 0 0 Z " fill="#62BFDD" transform="translate(321,200)"/>
<path d="M0 0 C2.14255793 -0.38932856 2.14255793 -0.38932856 4 -1 C1.55392477 1.86469884 -0.85481348 2.92891276 -4.375 4.1875 C-5.31085938 4.53167969 -6.24671875 4.87585938 -7.2109375 5.23046875 C-9.95523031 5.98764758 -12.17096621 6.14916724 -15 6 C-14.38125 5.54625 -13.7625 5.0925 -13.125 4.625 C-10.94080167 3.02891081 -10.94080167 3.02891081 -9 1 C-3.57692308 -1.19230769 -3.57692308 -1.19230769 0 0 Z " fill="#6FC0DF" transform="translate(313,238)"/>
<path d="M0 0 C1.50390625 1.19140625 1.50390625 1.19140625 3 3 C3.43520064 7.73973055 2.88964843 11.86772018 -0.0625 15.625 C-1.0215625 16.305625 -1.0215625 16.305625 -2 17 C-1.03644647 5.47835991 -1.03644647 5.47835991 0 0 Z " fill="#68BCDF" transform="translate(324,183)"/>
<path d="M0 0 C0.33 0.66 0.66 1.32 1 2 C-0.61594832 4.04119788 -2.2856382 6.04072937 -4 8 C-4.66 8 -5.32 8 -6 8 C-6.2475 8.5775 -6.495 9.155 -6.75 9.75 C-8.16683317 12.3002997 -9.87627537 14.01785701 -12 16 C-12.66 15.67 -13.32 15.34 -14 15 C-9.79211991 9.24454091 -5.58490476 4.44512827 0 0 Z " fill="#79C4DD" transform="translate(301,132)"/>
<path d="M0 0 C0.33 1.32 0.66 2.64 1 4 C-1.64 4 -4.28 4 -7 4 C-7.33 4.99 -7.66 5.98 -8 7 C-13.94 6.67 -19.88 6.34 -26 6 C-26 5.67 -26 5.34 -26 5 C-24.57107422 4.92652344 -24.57107422 4.92652344 -23.11328125 4.8515625 C-21.85902344 4.77679688 -20.60476563 4.70203125 -19.3125 4.625 C-17.45044922 4.52058594 -17.45044922 4.52058594 -15.55078125 4.4140625 C-12.26773279 4.03122077 -9.98137096 3.34774304 -7 2 C-4.67251306 1.31320058 -2.34013344 0.64238957 0 0 Z " fill="#5CB4D9" transform="translate(397,227)"/>
<path d="M0 0 C0.33 1.65 0.66 3.3 1 5 C0.34 5 -0.32 5 -1 5 C-1 4.34 -1 3.68 -1 3 C-5.67486793 2.8511744 -5.67486793 2.8511744 -10.25 3.625 C-10.8275 3.74875 -11.405 3.8725 -12 4 C-12.99 3.34 -13.98 2.68 -15 2 C-13.25364835 1.46706165 -11.50272348 0.94909337 -9.75 0.4375 C-8.77546875 0.14746094 -7.8009375 -0.14257812 -6.796875 -0.44140625 C-4.03756068 -0.99249836 -2.6087176 -0.93789609 0 0 Z " fill="#6BC0E0" transform="translate(321,91)"/>
<path d="M0 0 C0.99 0.33 1.98 0.66 3 1 C1.38405168 3.04119788 -0.2856382 5.04072937 -2 7 C-2.66 7 -3.32 7 -4 7 C-4 7.66 -4 8.32 -4 9 C-6.375 10.6875 -6.375 10.6875 -9 12 C-9.66 11.67 -10.32 11.34 -11 11 C-7.37 7.37 -3.74 3.74 0 0 Z " fill="#70C2DC" transform="translate(279,109)"/>
<path d="M0 0 C0 0.99 0 1.98 0 3 C-0.61875 3.2475 -1.2375 3.495 -1.875 3.75 C-4.11049208 4.80004165 -4.11049208 4.80004165 -4.875 6.8125 C-6.5828571 10.13333325 -9.01910444 11.76432833 -12 14 C-12.66 14 -13.32 14 -14 14 C-14 13.34 -14 12.68 -14 12 C-13.01 12 -12.02 12 -11 12 C-10.731875 11.360625 -10.46375 10.72125 -10.1875 10.0625 C-9 8 -9 8 -6 7 C-5.87625 6.38125 -5.7525 5.7625 -5.625 5.125 C-5 3 -5 3 -2.4375 1.25 C-1.2309375 0.63125 -1.2309375 0.63125 0 0 Z " fill="#79C0D9" transform="translate(333,221)"/>
<path d="M0 0 C2.475 0.495 2.475 0.495 5 1 C5.33 2.32 5.66 3.64 6 5 C7.1446875 5.0928125 7.1446875 5.0928125 8.3125 5.1875 C11 6 11 6 12.8125 8.5625 C13.204375 9.366875 13.59625 10.17125 14 11 C9.96407129 9.63079505 7.32473622 7.80419512 4.1875 4.9375 C3.39730469 4.22464844 2.60710937 3.51179687 1.79296875 2.77734375 C1.20128906 2.19082031 0.60960937 1.60429687 0 1 C0 0.67 0 0.34 0 0 Z " fill="#83CADF" transform="translate(254,228)"/>
<path d="M0 0 C0.33 0.66 0.66 1.32 1 2 C-0.98 2.99 -0.98 2.99 -3 4 C-2.67 5.32 -2.34 6.64 -2 8 C-5.71599191 8.20086443 -6.77208445 8.1519437 -10 6 C-7.27521226 2.63408573 -3.93143208 1.55773724 0 0 Z " fill="#58B8DD" transform="translate(305,94)"/>
<path d="M0 0 C5.77378925 0.4811491 9.95859836 2.18467181 15 5 C11.35879332 6.33256282 9.33123446 5.65840377 5.8125 4.1875 C4.93207031 3.83042969 4.05164063 3.47335937 3.14453125 3.10546875 C1 2 1 2 0 0 Z " fill="#73BEDA" transform="translate(306,266)"/>
<path d="M0 0 C3.33511388 2.9901021 5.21521119 5.89498574 7 10 C7 10.66 7 11.32 7 12 C6.01 12 5.02 12 4 12 C1.79463821 7.9728176 0.54339792 4.56454251 0 0 Z " fill="#74BEDD" transform="translate(419,165)"/>
<path d="M0 0 C3.375 4.5 3.375 4.5 3.6875 8.75 C3.75324219 9.54921875 3.81898438 10.3484375 3.88671875 11.171875 C3.92410156 11.77515625 3.96148437 12.3784375 4 13 C3.01 13 2.02 13 1 13 C0.67 8.71 0.34 4.42 0 0 Z " fill="#6FBDD9" transform="translate(426,178)"/>
<path d="M0 0 C0 0.33 0 0.66 0 1 C-5.28 2.32 -10.56 3.64 -16 5 C-16 4.34 -16 3.68 -16 3 C-11.37347931 -1.1479151 -5.81806416 -0.27510986 0 0 Z " fill="#7AC5E0" transform="translate(333,139)"/>
<path d="M0 0 C1.32 0 2.64 0 4 0 C4 0.99 4 1.98 4 3 C5.32 3 6.64 3 8 3 C8 3.99 8 4.98 8 6 C9.32 6.33 10.64 6.66 12 7 C10.375 7.8125 10.375 7.8125 8 8 C4.75 5.6875 4.75 5.6875 2 3 C2 2.34 2 1.68 2 1 C1.34 0.67 0.68 0.34 0 0 Z " fill="#6DC2DF" transform="translate(340,233)"/>
<path d="M0 0 C5.94 0.66 11.88 1.32 18 2 C18 2.33 18 2.66 18 3 C13.38 3.33 8.76 3.66 4 4 C4 3.34 4 2.68 4 2 C2.68 2 1.36 2 0 2 C0 1.34 0 0.68 0 0 Z " fill="#83CCE4" transform="translate(272,225)"/>
<path d="M0 0 C1.485 0.99 1.485 0.99 3 2 C3 2.66 3 3.32 3 4 C3.86625 4.2475 4.7325 4.495 5.625 4.75 C9.18302254 6.06778613 11.9226155 7.80186822 15 10 C13 11 13 11 9.9375 10.25 C8.4834375 9.63125 8.4834375 9.63125 7 9 C6.67 8.01 6.34 7.02 6 6 C5.360625 5.87625 4.72125 5.7525 4.0625 5.625 C3.381875 5.41875 2.70125 5.2125 2 5 C0.75 2.4375 0.75 2.4375 0 0 Z " fill="#5CBADC" transform="translate(251,211)"/>
<path d="M0 0 C-2.58411731 1.72274487 -4.54902656 2.68895522 -7.4375 3.6875 C-8.19933594 3.95949219 -8.96117187 4.23148437 -9.74609375 4.51171875 C-12.21829721 5.04729142 -13.62983284 4.80445309 -16 4 C-14.08959948 3.1319092 -12.17139263 2.28098217 -10.25 1.4375 C-9.18265625 0.96183594 -8.1153125 0.48617187 -7.015625 -0.00390625 C-4.01630163 -0.9946154 -2.86578759 -1.16161779 0 0 Z " fill="#78BFDC" transform="translate(327,122)"/>
<path d="M0 0 C-0.33 1.98 -0.66 3.96 -1 6 C-1.78375 5.649375 -2.5675 5.29875 -3.375 4.9375 C-4.24125 4.628125 -5.1075 4.31875 -6 4 C-6.99 4.495 -6.99 4.495 -8 5 C-7.67 3.68 -7.34 2.36 -7 1 C-4.50935112 0.31292445 -2.62113708 0 0 0 Z " fill="#45B3E0" transform="translate(415,162)"/>
<path d="M0 0 C0.99 0 1.98 0 3 0 C3 0.66 3 1.32 3 2 C3.66 2.33 4.32 2.66 5 3 C2.02819057 4.89865603 -0.51460083 6.35455571 -4 7 C-2.79618552 4.50638429 -1.54571278 2.31856917 0 0 Z " fill="#57B9DC" transform="translate(336,161)"/>
<path d="M0 0 C-3.21182149 1.90608098 -5.53882603 2.22266247 -9.25 2.125 C-10.14203125 2.10695313 -11.0340625 2.08890625 -11.953125 2.0703125 C-12.96632813 2.03550781 -12.96632813 2.03550781 -14 2 C-14 1.34 -14 0.68 -14 0 C-9.02936879 -0.91297308 -4.97063121 -0.91297308 0 0 Z " fill="#51AED6" transform="translate(366,255)"/>
<path d="M0 0 C0.825 0.144375 1.65 0.28875 2.5 0.4375 C6.32686278 1.05253152 10.15216707 1.53560637 14 2 C13.01 2.66 12.02 3.32 11 4 C11.33 4.66 11.66 5.32 12 6 C7.76570244 4.68938409 3.92592596 3.05643741 0 1 C0 0.67 0 0.34 0 0 Z " fill="#76C4E2" transform="translate(351,242)"/>
<path d="M0 0 C0.33 0.99 0.66 1.98 1 3 C-0.23944276 3.86941494 -1.49207059 4.72005457 -2.75 5.5625 C-3.44609375 6.03816406 -4.1421875 6.51382813 -4.859375 7.00390625 C-7 8 -7 8 -11 7 C-7.37 4.69 -3.74 2.38 0 0 Z " fill="#7CC3DE" transform="translate(311,217)"/>
<path d="M0 0 C0.99 0.495 0.99 0.495 2 1 C2 1.66 2 2.32 2 3 C3.69712207 4.30859649 3.69712207 4.30859649 6 5 C8.74832154 3.71815438 8.74832154 3.71815438 11 2 C10.67 3.32 10.34 4.64 10 6 C9.01 6 8.02 6 7 6 C7 6.66 7 7.32 7 8 C4 8 4 8 1.8125 6.25 C0 4 0 4 0 0 Z " fill="#8FCEE4" transform="translate(396,163)"/>
<path d="M0 0 C0.66 0 1.32 0 2 0 C2.33 1.32 2.66 2.64 3 4 C-0.40401948 5.13732426 -2.77456664 4.83989957 -6.25 4.0625 C-7.14203125 3.86785156 -8.0340625 3.67320312 -8.953125 3.47265625 C-9.62859375 3.31667969 -10.3040625 3.16070312 -11 3 C-11 2.67 -11 2.34 -11 2 C-7.37 2 -3.74 2 0 2 C0 1.34 0 0.68 0 0 Z " fill="#75C7E5" transform="translate(391,161)"/>
<path d="M0 0 C1.98 0 3.96 0 6 0 C3 3 0 6 -3 9 C-2.67 7.02 -2.34 5.04 -2 3 C-1.34 3 -0.68 3 0 3 C0 2.01 0 1.02 0 0 Z " fill="#69C0DA" transform="translate(307,147)"/>
<path d="M0 0 C2.97 0 5.94 0 9 0 C7.02 0.99 7.02 0.99 5 2 C4.19471111 4.05000871 4.19471111 4.05000871 4 6 C2.68 5.34 1.36 4.68 0 4 C0 2.68 0 1.36 0 0 Z " fill="#86C2E1" transform="translate(288,251)"/>
<path d="M0 0 C0.99 0.33 1.98 0.66 3 1 C0.80318537 4.46865468 -1.01305369 5.93033148 -5 7 C-7.16015625 6.54296875 -7.16015625 6.54296875 -9 6 C-7.57140593 4.96674014 -6.13177617 3.94872366 -4.6875 2.9375 C-3.88699219 2.36902344 -3.08648437 1.80054688 -2.26171875 1.21484375 C-1.51535156 0.81394531 -0.76898438 0.41304687 0 0 Z " fill="#6DBEDA" transform="translate(401,222)"/>
<path d="M0 0 C2 2 2 2 2 6 C1.34 6 0.68 6 0 6 C0 6.66 0 7.32 0 8 C-1.98 8.99 -1.98 8.99 -4 10 C-2.8905928 6.51329166 -1.73662334 3.22515763 0 0 Z " fill="#6FC1E0" transform="translate(286,148)"/>
<path d="M0 0 C0.33 0.66 0.66 1.32 1 2 C-1.33333333 4.33333333 -3.66666667 6.66666667 -6 9 C-6.99 8.67 -7.98 8.34 -9 8 C-7.625 6.5 -7.625 6.5 -6 5 C-5.34 5 -4.68 5 -4 5 C-3.566875 4.0409375 -3.566875 4.0409375 -3.125 3.0625 C-2 1 -2 1 0 0 Z " fill="#81C4DD" transform="translate(346,152)"/>
<path d="M0 0 C0.99 0.33 1.98 0.66 3 1 C1.75 3.5 1.75 3.5 0 6 C-1.32 6 -2.64 6 -4 6 C-4 4 -4 4 -2 1.875 C-1.34 1.25625 -0.68 0.6375 0 0 Z " fill="#3AB0DE" transform="translate(291,144)"/>
<path d="M0 0 C2.64 0 5.28 0 8 0 C8 0.66 8 1.32 8 2 C8.99 2.33 9.98 2.66 11 3 C3.57142857 3.14285714 3.57142857 3.14285714 0 2 C0 1.34 0 0.68 0 0 Z " fill="#68C1DB" transform="translate(328,273)"/>
<path d="M0 0 C-0.33 0.99 -0.66 1.98 -1 3 C-3.64 3.33 -6.28 3.66 -9 4 C-8.67 3.01 -8.34 2.02 -8 1 C-5.29120665 -0.35439668 -2.99066732 -0.06501451 0 0 Z " fill="#46AFD7" transform="translate(304,225)"/>
<path d="M0 0 C0.66 0 1.32 0 2 0 C0.74194623 4.50802601 -0.90407165 7.4912812 -4 11 C-4.42820102 7.36029133 -3.97413512 5.95430537 -2.125 2.6875 C-1.42375 1.800625 -0.7225 0.91375 0 0 Z " fill="#72BBD3" transform="translate(274,141)"/>
<path d="M0 0 C0.99 0.33 1.98 0.66 3 1 C0.525 5.455 0.525 5.455 -2 10 C-3.09658936 6.71023192 -2.79953138 5.28696233 -2 2 C-1.34 2 -0.68 2 0 2 C0 1.34 0 0.68 0 0 Z " fill="#82C3DD" transform="translate(301,156)"/>
<path d="M0 0 C0.66 0.99 1.32 1.98 2 3 C1.01 4.485 1.01 4.485 0 6 C-2.475 5.01 -2.475 5.01 -5 4 C-4.67 3.01 -4.34 2.02 -4 1 C-1.9375 0.3125 -1.9375 0.3125 0 0 Z " fill="#5FBBE1" transform="translate(402,150)"/>
<path d="M0 0 C0.75 1.5625 0.75 1.5625 1 4 C-0.13084437 6.50286409 -1.52139516 8.67007722 -3 11 C-3.66 11 -4.32 11 -5 11 C-3.77472971 6.94718288 -2.30119506 3.55639236 0 0 Z " fill="#74C2D6" transform="translate(260,131)"/>
<path d="M0 0 C1.65 0 3.3 0 5 0 C5.99 2.31 6.98 4.62 8 7 C7.34 7 6.68 7 6 7 C5.67 5.68 5.34 4.36 5 3 C3.35 2.67 1.7 2.34 0 2 C0 1.34 0 0.68 0 0 Z " fill="#43AFD6" transform="translate(254,226)"/>
<path d="M0 0 C-3.1254959 2.64465038 -6.08788267 3.84414715 -10 5 C-10 3 -10 3 -8.9375 1.375 C-6.03661182 -0.68369484 -3.45519943 -0.19557733 0 0 Z " fill="#81CDE5" transform="translate(386,266)"/>
<path d="M0 0 C0.66 0 1.32 0 2 0 C2 0.66 2 1.32 2 2 C2.99 2 3.98 2 5 2 C5.33 4.31 5.66 6.62 6 9 C2.91910327 6.22719294 1.31224548 3.93673644 0 0 Z " fill="#74C1DB" transform="translate(248,218)"/>
<path d="M0 0 C0.66 0.33 1.32 0.66 2 1 C1.67 3.64 1.34 6.28 1 9 C-1 7 -1 7 -1.1875 3.9375 C-1 1 -1 1 0 0 Z " fill="#6AC0E0" transform="translate(428,208)"/>
<path d="M0 0 C0.33 0.66 0.66 1.32 1 2 C1.66 2 2.32 2 3 2 C2.67 3.32 2.34 4.64 2 6 C0.68 5.67 -0.64 5.34 -2 5 C-2 3.68 -2 2.36 -2 1 C-1.34 0.67 -0.68 0.34 0 0 Z " fill="#3BADD6" transform="translate(411,210)"/>
<path d="M0 0 C2 3 2 3 1.625 5.6875 C1.41875 6.450625 1.2125 7.21375 1 8 C0.01 7.34 -0.98 6.68 -2 6 C-1.125 1.125 -1.125 1.125 0 0 Z " fill="#89C8E0" transform="translate(339,225)"/>
<path d="M0 0 C1.65 0.33 3.3 0.66 5 1 C5 1.99 5 2.98 5 4 C2.69 4 0.38 4 -2 4 C-1.34 3.67 -0.68 3.34 0 3 C0 2.01 0 1.02 0 0 Z " fill="#57B7DA" transform="translate(267,223)"/>
<path d="M0 0 C1.9375 0.3125 1.9375 0.3125 4 1 C4.33 1.99 4.66 2.98 5 4 C4.67 4.66 4.34 5.32 4 6 C2.35 5.67 0.7 5.34 -1 5 C-0.67 3.35 -0.34 1.7 0 0 Z " fill="#5EC5E9" transform="translate(410,206)"/>
<path d="M0 0 C1.32 1.65 2.64 3.3 4 5 C2.35 4.67 0.7 4.34 -1 4 C-1.33 4.99 -1.66 5.98 -2 7 C-3 5 -3 5 -2.6875 2.9375 C-2 1 -2 1 0 0 Z " fill="#46AACC" transform="translate(395,164)"/>
<path d="M0 0 C0.66 0 1.32 0 2 0 C2 0.99 2 1.98 2 3 C-0.90600261 4.25664978 -2.79604584 5 -6 5 C-6 4.34 -6 3.68 -6 3 C-4.02 2.67 -2.04 2.34 0 2 C0 1.34 0 0.68 0 0 Z " fill="#51B3D0" transform="translate(363,163)"/>
<path d="M0 0 C0 0.66 0 1.32 0 2 C-3.63 2.66 -7.26 3.32 -11 4 C-10 2 -10 2 -7.1875 0.875 C-4 0 -4 0 0 0 Z " fill="#99D1E6" transform="translate(365,145)"/>
<path d="M0 0 C0.66 0 1.32 0 2 0 C2 0.99 2 1.98 2 3 C-2.22222222 6 -2.22222222 6 -5 6 C-4.67 4.68 -4.34 3.36 -4 2 C-2.68 2 -1.36 2 0 2 C0 1.34 0 0.68 0 0 Z " fill="#40B0D7" transform="translate(306,130)"/>
<path d="M0 0 C0.75 1.75 0.75 1.75 1 4 C-0.9375 6.25 -0.9375 6.25 -3 8 C-3 6.35 -3 4.7 -3 3 C-2.34 3 -1.68 3 -1 3 C-0.67 2.01 -0.34 1.02 0 0 Z " fill="#72BCD6" transform="translate(349,174)"/>
<path d="M0 0 C0.66 0.33 1.32 0.66 2 1 C0.515 4.465 0.515 4.465 -1 8 C-1.33 8 -1.66 8 -2 8 C-2.125 5.125 -2.125 5.125 -2 2 C-1.34 1.34 -0.68 0.68 0 0 Z " fill="#3CAFD3" transform="translate(330,172)"/>
<path d="M0 0 C0.66 0 1.32 0 2 0 C0.75023244 3.65316671 0.32901247 4.78065836 -3 7 C-2.25 2.25 -2.25 2.25 0 0 Z " fill="#64BCD6" transform="translate(400,156)"/>
<path d="M0 0 C-1.98 1.32 -3.96 2.64 -6 4 C-6.66 3.34 -7.32 2.68 -8 2 C-5.44123378 -0.55876622 -3.37797483 -1.68898741 0 0 Z " fill="#87C5DD" transform="translate(304,116)"/>
<path d="M0 0 C1.98 0 3.96 0 6 0 C5.67 0.99 5.34 1.98 5 3 C2.69 3.33 0.38 3.66 -2 4 C-1.34 3.67 -0.68 3.34 0 3 C0 2.01 0 1.02 0 0 Z " fill="#54ACD1" transform="translate(304,111)"/>
<path d="" fill="#FFFFFF" transform="translate(0,0)"/>
<path d="" fill="#FFFFFF" transform="translate(0,0)"/>
<path d="" fill="#FFFFFF" transform="translate(0,0)"/>
<path d="" fill="#FFFFFF" transform="translate(0,0)"/>
<path d="" fill="#FFFFFF" transform="translate(0,0)"/>
<path d="" fill="#FFFFFF" transform="translate(0,0)"/>
<path d="" fill="#FFFFFF" transform="translate(0,0)"/>
<path d="" fill="#FFFFFF" transform="translate(0,0)"/>
<path d="" fill="#FFFFFF" transform="translate(0,0)"/>
<path d="" fill="#FFFFFF" transform="translate(0,0)"/>
<path d="" fill="#FFFFFF" transform="translate(0,0)"/>
<path d="" fill="#FFFFFF" transform="translate(0,0)"/>
<path d="" fill="#FFFFFF" transform="translate(0,0)"/>
<path d="" fill="#FFFFFF" transform="translate(0,0)"/>
<path d="" fill="#FFFFFF" transform="translate(0,0)"/>
<path d="" fill="#FFFFFF" transform="translate(0,0)"/>
<path d="" fill="#FFFFFF" transform="translate(0,0)"/>
<path d="" fill="#FFFFFF" transform="translate(0,0)"/>
<path d="" fill="#FFFFFF" transform="translate(0,0)"/>
<path d="" fill="#FFFFFF" transform="translate(0,0)"/>
<path d="" fill="#FFFFFF" transform="translate(0,0)"/>
<path d="" fill="#FFFFFF" transform="translate(0,0)"/>
<path d="" fill="#FFFFFF" transform="translate(0,0)"/>
<path d="" fill="#FFFFFF" transform="translate(0,0)"/>
<path d="" fill="#FFFFFF" transform="translate(0,0)"/>
<path d="" fill="#FFFFFF" transform="translate(0,0)"/>
<path d="" fill="#FFFFFF" transform="translate(0,0)"/>
<path d="" fill="#FFFFFF" transform="translate(0,0)"/>
<path d="" fill="#FFFFFF" transform="translate(0,0)"/>
<path d="" fill="#FFFFFF" transform="translate(0,0)"/>
<path d="" fill="#FFFFFF" transform="translate(0,0)"/>
<path d="" fill="#FFFFFF" transform="translate(0,0)"/>
<path d="" fill="#FFFFFF" transform="translate(0,0)"/>
<path d="" fill="#FFFFFF" transform="translate(0,0)"/>
<path d="" fill="#FFFFFF" transform="translate(0,0)"/>
<path d="" fill="#FFFFFF" transform="translate(0,0)"/>
<path d="" fill="#FFFFFF" transform="translate(0,0)"/>
<path d="" fill="#FFFFFF" transform="translate(0,0)"/>
<path d="" fill="#FFFFFF" transform="translate(0,0)"/>
<path d="" fill="#FFFFFF" transform="translate(0,0)"/>
<path d="" fill="#FFFFFF" transform="translate(0,0)"/>
<path d="" fill="#FFFFFF" transform="translate(0,0)"/>
<path d="" fill="#FFFFFF" transform="translate(0,0)"/>
<path d="" fill="#FFFFFF" transform="translate(0,0)"/>
<path d="" fill="#FFFFFF" transform="translate(0,0)"/>
<path d="" fill="#FFFFFF" transform="translate(0,0)"/>
<path d="" fill="#FFFFFF" transform="translate(0,0)"/>
<path d="" fill="#FFFFFF" transform="translate(0,0)"/>
<path d="" fill="#FFFFFF" transform="translate(0,0)"/>
<path d="" fill="#FFFFFF" transform="translate(0,0)"/>
<path d="" fill="#FFFFFF" transform="translate(0,0)"/>
<path d="" fill="#FFFFFF" transform="translate(0,0)"/>
<path d="" fill="#FFFFFF" transform="translate(0,0)"/>
<path d="" fill="#FFFFFF" transform="translate(0,0)"/>
<path d="" fill="#FFFFFF" transform="translate(0,0)"/>
<path d="" fill="#FFFFFF" transform="translate(0,0)"/>
<path d="" fill="#FFFFFF" transform="translate(0,0)"/>
<path d="" fill="#FFFFFF" transform="translate(0,0)"/>
<path d="" fill="#FFFFFF" transform="translate(0,0)"/>
<path d="" fill="#FFFFFF" transform="translate(0,0)"/>
<path d="" fill="#FFFFFF" transform="translate(0,0)"/>
<path d="" fill="#FFFFFF" transform="translate(0,0)"/>
<path d="" fill="#FFFFFF" transform="translate(0,0)"/>
<path d="" fill="#FFFFFF" transform="translate(0,0)"/>
<path d="" fill="#FFFFFF" transform="translate(0,0)"/>
<path d="" fill="#FFFFFF" transform="translate(0,0)"/>
<path d="" fill="#FFFFFF" transform="translate(0,0)"/>
<path d="" fill="#FFFFFF" transform="translate(0,0)"/>
<path d="" fill="#FEFFFF" transform="translate(0,0)"/>
</svg>
